<mxfile host="app.diagrams.net" modified="2022-04-29T05:57:33.602Z" agent="5.0 (Windows NT 10.0; Win64; x64) AppleWebKit/537.36 (KHTML, like Gecko) Chrome/100.0.4896.127 Safari/537.36 Edg/100.0.1185.50" etag="euAOYtcCnKqrSVRWjfDb" version="17.4.6" type="github">
  <diagram id="RZQm93Vow_q2rpSUFSxI" name="Page-1">
    <mxGraphModel dx="1038" dy="1679" grid="1" gridSize="10" guides="1" tooltips="1" connect="1" arrows="1" fold="1" page="1" pageScale="1" pageWidth="850" pageHeight="1100" math="0" shadow="0">
      <root>
        <mxCell id="0" />
        <mxCell id="1" parent="0" />
        <mxCell id="tZlK84Gi0rUNLwhuvPa0-3" value="" style="edgeStyle=orthogonalEdgeStyle;rounded=0;orthogonalLoop=1;jettySize=auto;html=1;" edge="1" parent="1" source="tZlK84Gi0rUNLwhuvPa0-1" target="tZlK84Gi0rUNLwhuvPa0-2">
          <mxGeometry relative="1" as="geometry" />
        </mxCell>
        <mxCell id="tZlK84Gi0rUNLwhuvPa0-1" value="start" style="rounded=1;whiteSpace=wrap;html=1;" vertex="1" parent="1">
          <mxGeometry x="120" y="30" width="90" height="20" as="geometry" />
        </mxCell>
        <mxCell id="tZlK84Gi0rUNLwhuvPa0-5" value="" style="edgeStyle=orthogonalEdgeStyle;rounded=0;orthogonalLoop=1;jettySize=auto;html=1;" edge="1" parent="1" source="tZlK84Gi0rUNLwhuvPa0-2" target="tZlK84Gi0rUNLwhuvPa0-4">
          <mxGeometry relative="1" as="geometry" />
        </mxCell>
        <mxCell id="tZlK84Gi0rUNLwhuvPa0-2" value="Initialize the property object" style="rounded=0;whiteSpace=wrap;html=1;" vertex="1" parent="1">
          <mxGeometry x="105" y="90" width="120" height="60" as="geometry" />
        </mxCell>
        <mxCell id="tZlK84Gi0rUNLwhuvPa0-7" value="" style="edgeStyle=orthogonalEdgeStyle;rounded=0;orthogonalLoop=1;jettySize=auto;html=1;" edge="1" parent="1" source="tZlK84Gi0rUNLwhuvPa0-4" target="tZlK84Gi0rUNLwhuvPa0-6">
          <mxGeometry relative="1" as="geometry">
            <Array as="points">
              <mxPoint x="250" y="260" />
              <mxPoint x="250" y="40" />
            </Array>
          </mxGeometry>
        </mxCell>
        <mxCell id="tZlK84Gi0rUNLwhuvPa0-58" value="" style="edgeStyle=orthogonalEdgeStyle;rounded=0;orthogonalLoop=1;jettySize=auto;html=1;fontSize=12;" edge="1" parent="1" source="tZlK84Gi0rUNLwhuvPa0-4" target="tZlK84Gi0rUNLwhuvPa0-57">
          <mxGeometry relative="1" as="geometry" />
        </mxCell>
        <mxCell id="tZlK84Gi0rUNLwhuvPa0-4" value="IF pop purpose the tourist" style="rhombus;whiteSpace=wrap;html=1;rounded=0;" vertex="1" parent="1">
          <mxGeometry x="125" y="220" width="80" height="80" as="geometry" />
        </mxCell>
        <mxCell id="tZlK84Gi0rUNLwhuvPa0-9" value="" style="edgeStyle=orthogonalEdgeStyle;rounded=0;orthogonalLoop=1;jettySize=auto;html=1;" edge="1" parent="1" source="tZlK84Gi0rUNLwhuvPa0-6" target="tZlK84Gi0rUNLwhuvPa0-8">
          <mxGeometry relative="1" as="geometry" />
        </mxCell>
        <mxCell id="tZlK84Gi0rUNLwhuvPa0-6" value="get ethnic pop column ref data" style="whiteSpace=wrap;html=1;rounded=0;" vertex="1" parent="1">
          <mxGeometry x="265" y="10" width="120" height="60" as="geometry" />
        </mxCell>
        <mxCell id="tZlK84Gi0rUNLwhuvPa0-11" value="" style="edgeStyle=orthogonalEdgeStyle;rounded=0;orthogonalLoop=1;jettySize=auto;html=1;" edge="1" parent="1" source="tZlK84Gi0rUNLwhuvPa0-8" target="tZlK84Gi0rUNLwhuvPa0-10">
          <mxGeometry relative="1" as="geometry" />
        </mxCell>
        <mxCell id="tZlK84Gi0rUNLwhuvPa0-8" value="FOR all column&amp;nbsp;&amp;nbsp;" style="rhombus;whiteSpace=wrap;html=1;rounded=0;" vertex="1" parent="1">
          <mxGeometry x="285" y="100" width="80" height="80" as="geometry" />
        </mxCell>
        <mxCell id="tZlK84Gi0rUNLwhuvPa0-13" value="yes" style="edgeStyle=orthogonalEdgeStyle;rounded=0;orthogonalLoop=1;jettySize=auto;html=1;" edge="1" parent="1" source="tZlK84Gi0rUNLwhuvPa0-10" target="tZlK84Gi0rUNLwhuvPa0-12">
          <mxGeometry relative="1" as="geometry" />
        </mxCell>
        <mxCell id="tZlK84Gi0rUNLwhuvPa0-21" value="NO" style="edgeStyle=orthogonalEdgeStyle;rounded=0;orthogonalLoop=1;jettySize=auto;html=1;" edge="1" parent="1" source="tZlK84Gi0rUNLwhuvPa0-10" target="tZlK84Gi0rUNLwhuvPa0-20">
          <mxGeometry relative="1" as="geometry">
            <Array as="points">
              <mxPoint x="410" y="250" />
              <mxPoint x="410" y="50" />
            </Array>
          </mxGeometry>
        </mxCell>
        <mxCell id="tZlK84Gi0rUNLwhuvPa0-10" value="IF column is health" style="rhombus;whiteSpace=wrap;html=1;rounded=0;" vertex="1" parent="1">
          <mxGeometry x="285" y="210" width="80" height="80" as="geometry" />
        </mxCell>
        <mxCell id="tZlK84Gi0rUNLwhuvPa0-15" value="" style="edgeStyle=orthogonalEdgeStyle;rounded=0;orthogonalLoop=1;jettySize=auto;html=1;" edge="1" parent="1" source="tZlK84Gi0rUNLwhuvPa0-12" target="tZlK84Gi0rUNLwhuvPa0-14">
          <mxGeometry relative="1" as="geometry" />
        </mxCell>
        <mxCell id="tZlK84Gi0rUNLwhuvPa0-12" value="Initialize the initial health and set the pop grp health and hp slap array" style="whiteSpace=wrap;html=1;rounded=0;" vertex="1" parent="1">
          <mxGeometry x="265" y="330" width="120" height="60" as="geometry" />
        </mxCell>
        <mxCell id="tZlK84Gi0rUNLwhuvPa0-17" value="" style="edgeStyle=orthogonalEdgeStyle;rounded=0;orthogonalLoop=1;jettySize=auto;html=1;" edge="1" parent="1" source="tZlK84Gi0rUNLwhuvPa0-14" target="tZlK84Gi0rUNLwhuvPa0-16">
          <mxGeometry relative="1" as="geometry" />
        </mxCell>
        <mxCell id="tZlK84Gi0rUNLwhuvPa0-14" value="FOR 3 hp slap" style="rhombus;whiteSpace=wrap;html=1;rounded=0;" vertex="1" parent="1">
          <mxGeometry x="285" y="420" width="80" height="80" as="geometry" />
        </mxCell>
        <mxCell id="tZlK84Gi0rUNLwhuvPa0-19" value="" style="edgeStyle=orthogonalEdgeStyle;rounded=0;orthogonalLoop=1;jettySize=auto;html=1;" edge="1" parent="1" source="tZlK84Gi0rUNLwhuvPa0-16" target="tZlK84Gi0rUNLwhuvPa0-18">
          <mxGeometry relative="1" as="geometry" />
        </mxCell>
        <mxCell id="tZlK84Gi0rUNLwhuvPa0-16" value="increase the 25 % hp value and calculate the hp value" style="rounded=0;whiteSpace=wrap;html=1;" vertex="1" parent="1">
          <mxGeometry x="417.5" y="430" width="120" height="60" as="geometry" />
        </mxCell>
        <mxCell id="tZlK84Gi0rUNLwhuvPa0-31" style="edgeStyle=orthogonalEdgeStyle;rounded=0;orthogonalLoop=1;jettySize=auto;html=1;entryX=0;entryY=0.5;entryDx=0;entryDy=0;fontSize=12;" edge="1" parent="1" source="tZlK84Gi0rUNLwhuvPa0-18" target="tZlK84Gi0rUNLwhuvPa0-14">
          <mxGeometry relative="1" as="geometry">
            <Array as="points">
              <mxPoint x="623" y="400" />
              <mxPoint x="265" y="400" />
              <mxPoint x="265" y="460" />
            </Array>
          </mxGeometry>
        </mxCell>
        <mxCell id="tZlK84Gi0rUNLwhuvPa0-32" value="next hp threshold" style="edgeLabel;html=1;align=center;verticalAlign=middle;resizable=0;points=[];fontSize=12;" vertex="1" connectable="0" parent="tZlK84Gi0rUNLwhuvPa0-31">
          <mxGeometry x="-0.2264" y="4" relative="1" as="geometry">
            <mxPoint as="offset" />
          </mxGeometry>
        </mxCell>
        <mxCell id="tZlK84Gi0rUNLwhuvPa0-18" value="store the hp slab value" style="shape=dataStorage;whiteSpace=wrap;html=1;fixedSize=1;" vertex="1" parent="1">
          <mxGeometry x="580" y="440" width="85" height="40" as="geometry" />
        </mxCell>
        <mxCell id="tZlK84Gi0rUNLwhuvPa0-23" value="yes" style="edgeStyle=orthogonalEdgeStyle;rounded=0;orthogonalLoop=1;jettySize=auto;html=1;fontSize=9;" edge="1" parent="1" source="tZlK84Gi0rUNLwhuvPa0-20" target="tZlK84Gi0rUNLwhuvPa0-22">
          <mxGeometry relative="1" as="geometry" />
        </mxCell>
        <mxCell id="tZlK84Gi0rUNLwhuvPa0-25" value="NO" style="edgeStyle=orthogonalEdgeStyle;rounded=0;orthogonalLoop=1;jettySize=auto;html=1;fontSize=9;" edge="1" parent="1" source="tZlK84Gi0rUNLwhuvPa0-20" target="tZlK84Gi0rUNLwhuvPa0-24">
          <mxGeometry relative="1" as="geometry" />
        </mxCell>
        <mxCell id="tZlK84Gi0rUNLwhuvPa0-20" value="&lt;font style=&quot;font-size: 9px&quot;&gt;ELSE IF column &lt;br&gt;not ehtnicity id,model id,texture&lt;/font&gt;" style="rhombus;whiteSpace=wrap;html=1;rounded=0;" vertex="1" parent="1">
          <mxGeometry x="425" y="10" width="105" height="80" as="geometry" />
        </mxCell>
        <mxCell id="tZlK84Gi0rUNLwhuvPa0-22" value="store the value as float" style="shape=dataStorage;whiteSpace=wrap;html=1;fixedSize=1;" vertex="1" parent="1">
          <mxGeometry x="435" y="120" width="85" height="40" as="geometry" />
        </mxCell>
        <mxCell id="tZlK84Gi0rUNLwhuvPa0-27" value="" style="edgeStyle=orthogonalEdgeStyle;rounded=0;orthogonalLoop=1;jettySize=auto;html=1;fontSize=9;" edge="1" parent="1" source="tZlK84Gi0rUNLwhuvPa0-24" target="tZlK84Gi0rUNLwhuvPa0-26">
          <mxGeometry relative="1" as="geometry" />
        </mxCell>
        <mxCell id="tZlK84Gi0rUNLwhuvPa0-24" value="&lt;font style=&quot;font-size: 9px&quot;&gt;ELSE&amp;nbsp;&lt;/font&gt;" style="rhombus;whiteSpace=wrap;html=1;rounded=0;" vertex="1" parent="1">
          <mxGeometry x="580" y="10" width="105" height="80" as="geometry" />
        </mxCell>
        <mxCell id="tZlK84Gi0rUNLwhuvPa0-28" style="edgeStyle=orthogonalEdgeStyle;rounded=0;orthogonalLoop=1;jettySize=auto;html=1;entryX=1;entryY=0.5;entryDx=0;entryDy=0;fontSize=9;" edge="1" parent="1" source="tZlK84Gi0rUNLwhuvPa0-26" target="tZlK84Gi0rUNLwhuvPa0-8">
          <mxGeometry relative="1" as="geometry">
            <Array as="points">
              <mxPoint x="770" y="140" />
              <mxPoint x="770" />
              <mxPoint x="400" />
              <mxPoint x="400" y="140" />
            </Array>
          </mxGeometry>
        </mxCell>
        <mxCell id="tZlK84Gi0rUNLwhuvPa0-29" value="&lt;font style=&quot;font-size: 12px&quot;&gt;Next column&lt;/font&gt;" style="edgeLabel;html=1;align=center;verticalAlign=middle;resizable=0;points=[];fontSize=9;" vertex="1" connectable="0" parent="tZlK84Gi0rUNLwhuvPa0-28">
          <mxGeometry x="-0.6226" y="-2" relative="1" as="geometry">
            <mxPoint x="1" as="offset" />
          </mxGeometry>
        </mxCell>
        <mxCell id="tZlK84Gi0rUNLwhuvPa0-35" value="" style="edgeStyle=orthogonalEdgeStyle;rounded=0;orthogonalLoop=1;jettySize=auto;html=1;fontSize=12;" edge="1" parent="1" source="tZlK84Gi0rUNLwhuvPa0-26" target="tZlK84Gi0rUNLwhuvPa0-34">
          <mxGeometry relative="1" as="geometry" />
        </mxCell>
        <mxCell id="tZlK84Gi0rUNLwhuvPa0-26" value="store the value as float" style="shape=dataStorage;whiteSpace=wrap;html=1;fixedSize=1;" vertex="1" parent="1">
          <mxGeometry x="590" y="120" width="85" height="40" as="geometry" />
        </mxCell>
        <mxCell id="tZlK84Gi0rUNLwhuvPa0-30" style="edgeStyle=orthogonalEdgeStyle;rounded=0;orthogonalLoop=1;jettySize=auto;html=1;exitX=0.5;exitY=1;exitDx=0;exitDy=0;fontSize=12;" edge="1" parent="1" source="tZlK84Gi0rUNLwhuvPa0-18" target="tZlK84Gi0rUNLwhuvPa0-18">
          <mxGeometry relative="1" as="geometry" />
        </mxCell>
        <mxCell id="tZlK84Gi0rUNLwhuvPa0-37" value="" style="edgeStyle=orthogonalEdgeStyle;rounded=0;orthogonalLoop=1;jettySize=auto;html=1;fontSize=12;" edge="1" parent="1" source="tZlK84Gi0rUNLwhuvPa0-34" target="tZlK84Gi0rUNLwhuvPa0-36">
          <mxGeometry relative="1" as="geometry" />
        </mxCell>
        <mxCell id="tZlK84Gi0rUNLwhuvPa0-34" value="IF pop grp id not 0&amp;nbsp;" style="rhombus;whiteSpace=wrap;html=1;" vertex="1" parent="1">
          <mxGeometry x="650" y="210" width="80" height="80" as="geometry" />
        </mxCell>
        <mxCell id="tZlK84Gi0rUNLwhuvPa0-39" style="edgeStyle=orthogonalEdgeStyle;rounded=0;orthogonalLoop=1;jettySize=auto;html=1;entryX=0.5;entryY=0;entryDx=0;entryDy=0;fontSize=12;" edge="1" parent="1" source="tZlK84Gi0rUNLwhuvPa0-36" target="tZlK84Gi0rUNLwhuvPa0-38">
          <mxGeometry relative="1" as="geometry" />
        </mxCell>
        <mxCell id="tZlK84Gi0rUNLwhuvPa0-36" value="split the grp id&amp;nbsp;" style="whiteSpace=wrap;html=1;" vertex="1" parent="1">
          <mxGeometry x="650" y="320" width="120" height="60" as="geometry" />
        </mxCell>
        <mxCell id="tZlK84Gi0rUNLwhuvPa0-42" value="" style="edgeStyle=orthogonalEdgeStyle;rounded=0;orthogonalLoop=1;jettySize=auto;html=1;fontSize=12;" edge="1" parent="1" source="tZlK84Gi0rUNLwhuvPa0-38" target="tZlK84Gi0rUNLwhuvPa0-41">
          <mxGeometry relative="1" as="geometry">
            <Array as="points">
              <mxPoint x="810" y="450" />
              <mxPoint x="810" y="50" />
            </Array>
          </mxGeometry>
        </mxCell>
        <mxCell id="tZlK84Gi0rUNLwhuvPa0-38" value="store the gender,gen,race,&lt;br&gt;foodLabel" style="shape=dataStorage;whiteSpace=wrap;html=1;fixedSize=1;fontSize=12;" vertex="1" parent="1">
          <mxGeometry x="700" y="410" width="100" height="80" as="geometry" />
        </mxCell>
        <mxCell id="tZlK84Gi0rUNLwhuvPa0-44" value="" style="edgeStyle=orthogonalEdgeStyle;rounded=0;orthogonalLoop=1;jettySize=auto;html=1;fontSize=12;" edge="1" parent="1" source="tZlK84Gi0rUNLwhuvPa0-41" target="tZlK84Gi0rUNLwhuvPa0-43">
          <mxGeometry relative="1" as="geometry" />
        </mxCell>
        <mxCell id="tZlK84Gi0rUNLwhuvPa0-41" value="store the clsnrad, grp ticket value" style="shape=dataStorage;whiteSpace=wrap;html=1;fixedSize=1;fontSize=12;" vertex="1" parent="1">
          <mxGeometry x="830" y="10" width="100" height="80" as="geometry" />
        </mxCell>
        <mxCell id="tZlK84Gi0rUNLwhuvPa0-48" value="" style="edgeStyle=orthogonalEdgeStyle;rounded=0;orthogonalLoop=1;jettySize=auto;html=1;fontSize=12;" edge="1" parent="1" source="tZlK84Gi0rUNLwhuvPa0-43" target="tZlK84Gi0rUNLwhuvPa0-47">
          <mxGeometry relative="1" as="geometry" />
        </mxCell>
        <mxCell id="tZlK84Gi0rUNLwhuvPa0-43" value="store the model, texture, and anim form id" style="shape=dataStorage;whiteSpace=wrap;html=1;fixedSize=1;fontSize=12;size=20;" vertex="1" parent="1">
          <mxGeometry x="830" y="120" width="100" height="80" as="geometry" />
        </mxCell>
        <mxCell id="tZlK84Gi0rUNLwhuvPa0-50" value="" style="edgeStyle=orthogonalEdgeStyle;rounded=0;orthogonalLoop=1;jettySize=auto;html=1;fontSize=12;" edge="1" parent="1" source="tZlK84Gi0rUNLwhuvPa0-47" target="tZlK84Gi0rUNLwhuvPa0-49">
          <mxGeometry relative="1" as="geometry" />
        </mxCell>
        <mxCell id="tZlK84Gi0rUNLwhuvPa0-47" value="calculate each pop hp and set the each pop hp&amp;nbsp;" style="whiteSpace=wrap;html=1;" vertex="1" parent="1">
          <mxGeometry x="820" y="230" width="120" height="60" as="geometry" />
        </mxCell>
        <mxCell id="tZlK84Gi0rUNLwhuvPa0-52" value="" style="edgeStyle=orthogonalEdgeStyle;rounded=0;orthogonalLoop=1;jettySize=auto;html=1;fontSize=12;" edge="1" parent="1" source="tZlK84Gi0rUNLwhuvPa0-49" target="tZlK84Gi0rUNLwhuvPa0-51">
          <mxGeometry relative="1" as="geometry" />
        </mxCell>
        <mxCell id="tZlK84Gi0rUNLwhuvPa0-49" value="construct the partial converted object" style="whiteSpace=wrap;html=1;" vertex="1" parent="1">
          <mxGeometry x="820" y="320" width="120" height="60" as="geometry" />
        </mxCell>
        <mxCell id="tZlK84Gi0rUNLwhuvPa0-54" value="yes" style="edgeStyle=orthogonalEdgeStyle;rounded=0;orthogonalLoop=1;jettySize=auto;html=1;fontSize=12;" edge="1" parent="1" source="tZlK84Gi0rUNLwhuvPa0-51" target="tZlK84Gi0rUNLwhuvPa0-53">
          <mxGeometry relative="1" as="geometry" />
        </mxCell>
        <mxCell id="tZlK84Gi0rUNLwhuvPa0-51" value="IF attack range not undefind" style="rhombus;whiteSpace=wrap;html=1;" vertex="1" parent="1">
          <mxGeometry x="840" y="410" width="80" height="80" as="geometry" />
        </mxCell>
        <mxCell id="tZlK84Gi0rUNLwhuvPa0-56" value="" style="edgeStyle=orthogonalEdgeStyle;rounded=0;orthogonalLoop=1;jettySize=auto;html=1;fontSize=12;" edge="1" parent="1" source="tZlK84Gi0rUNLwhuvPa0-53" target="tZlK84Gi0rUNLwhuvPa0-55">
          <mxGeometry relative="1" as="geometry" />
        </mxCell>
        <mxCell id="tZlK84Gi0rUNLwhuvPa0-53" value="set the sight range as attack range" style="whiteSpace=wrap;html=1;" vertex="1" parent="1">
          <mxGeometry x="950" y="420" width="120" height="60" as="geometry" />
        </mxCell>
        <mxCell id="tZlK84Gi0rUNLwhuvPa0-110" style="edgeStyle=orthogonalEdgeStyle;rounded=0;orthogonalLoop=1;jettySize=auto;html=1;fontSize=12;" edge="1" parent="1" source="tZlK84Gi0rUNLwhuvPa0-55" target="tZlK84Gi0rUNLwhuvPa0-108">
          <mxGeometry relative="1" as="geometry" />
        </mxCell>
        <mxCell id="tZlK84Gi0rUNLwhuvPa0-55" value="return property" style="whiteSpace=wrap;html=1;" vertex="1" parent="1">
          <mxGeometry x="950" y="510" width="120" height="60" as="geometry" />
        </mxCell>
        <mxCell id="tZlK84Gi0rUNLwhuvPa0-60" value="" style="edgeStyle=orthogonalEdgeStyle;rounded=0;orthogonalLoop=1;jettySize=auto;html=1;fontSize=12;" edge="1" parent="1" source="tZlK84Gi0rUNLwhuvPa0-57" target="tZlK84Gi0rUNLwhuvPa0-59">
          <mxGeometry relative="1" as="geometry" />
        </mxCell>
        <mxCell id="tZlK84Gi0rUNLwhuvPa0-57" value="ELSE&amp;nbsp;" style="rhombus;whiteSpace=wrap;html=1;rounded=0;" vertex="1" parent="1">
          <mxGeometry x="125" y="720" width="80" height="80" as="geometry" />
        </mxCell>
        <mxCell id="tZlK84Gi0rUNLwhuvPa0-62" value="" style="edgeStyle=orthogonalEdgeStyle;rounded=0;orthogonalLoop=1;jettySize=auto;html=1;fontSize=12;" edge="1" parent="1" source="tZlK84Gi0rUNLwhuvPa0-59" target="tZlK84Gi0rUNLwhuvPa0-61">
          <mxGeometry relative="1" as="geometry">
            <Array as="points">
              <mxPoint x="250" y="900" />
              <mxPoint x="250" y="660" />
            </Array>
          </mxGeometry>
        </mxCell>
        <mxCell id="tZlK84Gi0rUNLwhuvPa0-59" value="Get the normal pop column field" style="whiteSpace=wrap;html=1;rounded=0;" vertex="1" parent="1">
          <mxGeometry x="105" y="870" width="120" height="60" as="geometry" />
        </mxCell>
        <mxCell id="tZlK84Gi0rUNLwhuvPa0-64" value="" style="edgeStyle=orthogonalEdgeStyle;rounded=0;orthogonalLoop=1;jettySize=auto;html=1;fontSize=12;" edge="1" parent="1" source="tZlK84Gi0rUNLwhuvPa0-61" target="tZlK84Gi0rUNLwhuvPa0-63">
          <mxGeometry relative="1" as="geometry" />
        </mxCell>
        <mxCell id="tZlK84Gi0rUNLwhuvPa0-61" value="FOR all column&amp;nbsp;" style="rhombus;whiteSpace=wrap;html=1;rounded=0;" vertex="1" parent="1">
          <mxGeometry x="265" y="620" width="80" height="80" as="geometry" />
        </mxCell>
        <mxCell id="tZlK84Gi0rUNLwhuvPa0-66" value="yes" style="edgeStyle=orthogonalEdgeStyle;rounded=0;orthogonalLoop=1;jettySize=auto;html=1;fontSize=12;" edge="1" parent="1" source="tZlK84Gi0rUNLwhuvPa0-63" target="tZlK84Gi0rUNLwhuvPa0-65">
          <mxGeometry relative="1" as="geometry" />
        </mxCell>
        <mxCell id="tZlK84Gi0rUNLwhuvPa0-68" value="" style="edgeStyle=orthogonalEdgeStyle;rounded=0;orthogonalLoop=1;jettySize=auto;html=1;fontSize=12;" edge="1" parent="1" source="tZlK84Gi0rUNLwhuvPa0-63" target="tZlK84Gi0rUNLwhuvPa0-67">
          <mxGeometry relative="1" as="geometry">
            <Array as="points">
              <mxPoint x="370" y="780" />
              <mxPoint x="370" y="650" />
            </Array>
          </mxGeometry>
        </mxCell>
        <mxCell id="tZlK84Gi0rUNLwhuvPa0-69" value="No" style="edgeLabel;html=1;align=center;verticalAlign=middle;resizable=0;points=[];fontSize=12;" vertex="1" connectable="0" parent="tZlK84Gi0rUNLwhuvPa0-68">
          <mxGeometry x="-0.4471" y="-2" relative="1" as="geometry">
            <mxPoint as="offset" />
          </mxGeometry>
        </mxCell>
        <mxCell id="tZlK84Gi0rUNLwhuvPa0-63" value="IF column animation group&amp;nbsp;" style="rhombus;whiteSpace=wrap;html=1;rounded=0;" vertex="1" parent="1">
          <mxGeometry x="265" y="740" width="80" height="80" as="geometry" />
        </mxCell>
        <mxCell id="tZlK84Gi0rUNLwhuvPa0-65" value="store the animation group encoded" style="shape=dataStorage;whiteSpace=wrap;html=1;fixedSize=1;fontSize=12;" vertex="1" parent="1">
          <mxGeometry x="262.5" y="850" width="85" height="60" as="geometry" />
        </mxCell>
        <mxCell id="tZlK84Gi0rUNLwhuvPa0-74" value="yes" style="edgeStyle=orthogonalEdgeStyle;rounded=0;orthogonalLoop=1;jettySize=auto;html=1;fontSize=12;" edge="1" parent="1" source="tZlK84Gi0rUNLwhuvPa0-67" target="tZlK84Gi0rUNLwhuvPa0-70">
          <mxGeometry relative="1" as="geometry" />
        </mxCell>
        <mxCell id="tZlK84Gi0rUNLwhuvPa0-81" value="no" style="edgeStyle=orthogonalEdgeStyle;rounded=0;orthogonalLoop=1;jettySize=auto;html=1;fontSize=12;" edge="1" parent="1" source="tZlK84Gi0rUNLwhuvPa0-67" target="tZlK84Gi0rUNLwhuvPa0-80">
          <mxGeometry relative="1" as="geometry" />
        </mxCell>
        <mxCell id="tZlK84Gi0rUNLwhuvPa0-67" value="ELSE IF column health" style="rhombus;whiteSpace=wrap;html=1;rounded=0;" vertex="1" parent="1">
          <mxGeometry x="385" y="610" width="80" height="80" as="geometry" />
        </mxCell>
        <mxCell id="tZlK84Gi0rUNLwhuvPa0-75" value="" style="edgeStyle=orthogonalEdgeStyle;rounded=0;orthogonalLoop=1;jettySize=auto;html=1;fontSize=12;" edge="1" parent="1" source="tZlK84Gi0rUNLwhuvPa0-70" target="tZlK84Gi0rUNLwhuvPa0-71">
          <mxGeometry relative="1" as="geometry" />
        </mxCell>
        <mxCell id="tZlK84Gi0rUNLwhuvPa0-70" value="Initialize the initial health and set the pop grp health and hp slap array" style="whiteSpace=wrap;html=1;rounded=0;" vertex="1" parent="1">
          <mxGeometry x="385" y="730" width="120" height="60" as="geometry" />
        </mxCell>
        <mxCell id="tZlK84Gi0rUNLwhuvPa0-76" value="" style="edgeStyle=orthogonalEdgeStyle;rounded=0;orthogonalLoop=1;jettySize=auto;html=1;fontSize=12;" edge="1" parent="1" source="tZlK84Gi0rUNLwhuvPa0-71" target="tZlK84Gi0rUNLwhuvPa0-72">
          <mxGeometry relative="1" as="geometry" />
        </mxCell>
        <mxCell id="tZlK84Gi0rUNLwhuvPa0-71" value="FOR 3 hp slap" style="rhombus;whiteSpace=wrap;html=1;rounded=0;" vertex="1" parent="1">
          <mxGeometry x="405" y="820" width="80" height="80" as="geometry" />
        </mxCell>
        <mxCell id="tZlK84Gi0rUNLwhuvPa0-77" value="" style="edgeStyle=orthogonalEdgeStyle;rounded=0;orthogonalLoop=1;jettySize=auto;html=1;fontSize=12;" edge="1" parent="1" source="tZlK84Gi0rUNLwhuvPa0-72" target="tZlK84Gi0rUNLwhuvPa0-73">
          <mxGeometry relative="1" as="geometry" />
        </mxCell>
        <mxCell id="tZlK84Gi0rUNLwhuvPa0-72" value="increase the 25 % hp value and calculate the hp value" style="rounded=0;whiteSpace=wrap;html=1;" vertex="1" parent="1">
          <mxGeometry x="537.5" y="830" width="120" height="60" as="geometry" />
        </mxCell>
        <mxCell id="tZlK84Gi0rUNLwhuvPa0-78" style="edgeStyle=orthogonalEdgeStyle;rounded=0;orthogonalLoop=1;jettySize=auto;html=1;entryX=0;entryY=0.5;entryDx=0;entryDy=0;fontSize=12;" edge="1" parent="1" source="tZlK84Gi0rUNLwhuvPa0-73" target="tZlK84Gi0rUNLwhuvPa0-71">
          <mxGeometry relative="1" as="geometry">
            <Array as="points">
              <mxPoint x="790" y="860" />
              <mxPoint x="790" y="800" />
              <mxPoint x="385" y="800" />
              <mxPoint x="385" y="860" />
            </Array>
          </mxGeometry>
        </mxCell>
        <mxCell id="tZlK84Gi0rUNLwhuvPa0-73" value="store the hp slab value" style="shape=dataStorage;whiteSpace=wrap;html=1;fixedSize=1;size=25;" vertex="1" parent="1">
          <mxGeometry x="700" y="840" width="85" height="40" as="geometry" />
        </mxCell>
        <mxCell id="tZlK84Gi0rUNLwhuvPa0-83" value="" style="edgeStyle=orthogonalEdgeStyle;rounded=0;orthogonalLoop=1;jettySize=auto;html=1;fontSize=9;" edge="1" parent="1" source="tZlK84Gi0rUNLwhuvPa0-80" target="tZlK84Gi0rUNLwhuvPa0-82">
          <mxGeometry relative="1" as="geometry" />
        </mxCell>
        <mxCell id="tZlK84Gi0rUNLwhuvPa0-80" value="&lt;font style=&quot;font-size: 9px&quot;&gt;ELSE IF column not grp id, gro &lt;br&gt;ticket value,&lt;br&gt;animation and texture&lt;/font&gt;" style="rhombus;whiteSpace=wrap;html=1;rounded=0;" vertex="1" parent="1">
          <mxGeometry x="620" y="610" width="170" height="100" as="geometry" />
        </mxCell>
        <mxCell id="tZlK84Gi0rUNLwhuvPa0-84" style="edgeStyle=orthogonalEdgeStyle;rounded=0;orthogonalLoop=1;jettySize=auto;html=1;entryX=0.5;entryY=0;entryDx=0;entryDy=0;fontSize=9;" edge="1" parent="1" source="tZlK84Gi0rUNLwhuvPa0-82" target="tZlK84Gi0rUNLwhuvPa0-61">
          <mxGeometry relative="1" as="geometry">
            <Array as="points">
              <mxPoint x="810" y="760" />
              <mxPoint x="810" y="600" />
              <mxPoint x="305" y="600" />
            </Array>
          </mxGeometry>
        </mxCell>
        <mxCell id="tZlK84Gi0rUNLwhuvPa0-85" value="&lt;font style=&quot;font-size: 12px&quot;&gt;next&amp;nbsp;column&lt;/font&gt;" style="edgeLabel;html=1;align=center;verticalAlign=middle;resizable=0;points=[];fontSize=9;" vertex="1" connectable="0" parent="tZlK84Gi0rUNLwhuvPa0-84">
          <mxGeometry x="0.1717" y="-3" relative="1" as="geometry">
            <mxPoint as="offset" />
          </mxGeometry>
        </mxCell>
        <mxCell id="tZlK84Gi0rUNLwhuvPa0-97" style="edgeStyle=orthogonalEdgeStyle;rounded=0;orthogonalLoop=1;jettySize=auto;html=1;fontSize=12;" edge="1" parent="1" source="tZlK84Gi0rUNLwhuvPa0-82" target="tZlK84Gi0rUNLwhuvPa0-86">
          <mxGeometry relative="1" as="geometry" />
        </mxCell>
        <mxCell id="tZlK84Gi0rUNLwhuvPa0-82" value="&lt;span style=&quot;font-size: 12px&quot;&gt;store the value as float&lt;/span&gt;" style="shape=dataStorage;whiteSpace=wrap;html=1;fixedSize=1;fontSize=9;size=20;" vertex="1" parent="1">
          <mxGeometry x="665" y="735" width="80" height="50" as="geometry" />
        </mxCell>
        <mxCell id="tZlK84Gi0rUNLwhuvPa0-98" value="" style="edgeStyle=orthogonalEdgeStyle;rounded=0;orthogonalLoop=1;jettySize=auto;html=1;fontSize=12;" edge="1" parent="1" source="tZlK84Gi0rUNLwhuvPa0-86" target="tZlK84Gi0rUNLwhuvPa0-87">
          <mxGeometry relative="1" as="geometry" />
        </mxCell>
        <mxCell id="tZlK84Gi0rUNLwhuvPa0-86" value="IF pop grp id not 0&amp;nbsp;" style="rhombus;whiteSpace=wrap;html=1;" vertex="1" parent="1">
          <mxGeometry x="840" y="800" width="80" height="80" as="geometry" />
        </mxCell>
        <mxCell id="tZlK84Gi0rUNLwhuvPa0-99" value="" style="edgeStyle=orthogonalEdgeStyle;rounded=0;orthogonalLoop=1;jettySize=auto;html=1;fontSize=12;" edge="1" parent="1" source="tZlK84Gi0rUNLwhuvPa0-87" target="tZlK84Gi0rUNLwhuvPa0-89">
          <mxGeometry relative="1" as="geometry" />
        </mxCell>
        <mxCell id="tZlK84Gi0rUNLwhuvPa0-87" value="split the grp id&amp;nbsp;" style="whiteSpace=wrap;html=1;" vertex="1" parent="1">
          <mxGeometry x="840" y="910" width="120" height="60" as="geometry" />
        </mxCell>
        <mxCell id="tZlK84Gi0rUNLwhuvPa0-88" value="" style="edgeStyle=orthogonalEdgeStyle;rounded=0;orthogonalLoop=1;jettySize=auto;html=1;fontSize=12;" edge="1" parent="1" source="tZlK84Gi0rUNLwhuvPa0-89" target="tZlK84Gi0rUNLwhuvPa0-90">
          <mxGeometry relative="1" as="geometry">
            <Array as="points">
              <mxPoint x="1000" y="1040" />
              <mxPoint x="1000" y="640" />
            </Array>
          </mxGeometry>
        </mxCell>
        <mxCell id="tZlK84Gi0rUNLwhuvPa0-89" value="store the gender,gen,race,&lt;br&gt;foodLabel" style="shape=dataStorage;whiteSpace=wrap;html=1;fixedSize=1;fontSize=12;" vertex="1" parent="1">
          <mxGeometry x="890" y="1000" width="100" height="80" as="geometry" />
        </mxCell>
        <mxCell id="tZlK84Gi0rUNLwhuvPa0-100" value="" style="edgeStyle=orthogonalEdgeStyle;rounded=0;orthogonalLoop=1;jettySize=auto;html=1;fontSize=12;" edge="1" parent="1" source="tZlK84Gi0rUNLwhuvPa0-90" target="tZlK84Gi0rUNLwhuvPa0-91">
          <mxGeometry relative="1" as="geometry" />
        </mxCell>
        <mxCell id="tZlK84Gi0rUNLwhuvPa0-90" value="store the clsnrad, grp ticket value" style="shape=dataStorage;whiteSpace=wrap;html=1;fixedSize=1;fontSize=12;" vertex="1" parent="1">
          <mxGeometry x="1020" y="600" width="100" height="80" as="geometry" />
        </mxCell>
        <mxCell id="tZlK84Gi0rUNLwhuvPa0-101" value="" style="edgeStyle=orthogonalEdgeStyle;rounded=0;orthogonalLoop=1;jettySize=auto;html=1;fontSize=12;" edge="1" parent="1" source="tZlK84Gi0rUNLwhuvPa0-91" target="tZlK84Gi0rUNLwhuvPa0-92">
          <mxGeometry relative="1" as="geometry" />
        </mxCell>
        <mxCell id="tZlK84Gi0rUNLwhuvPa0-91" value="store the model, texture, and anim form id" style="shape=dataStorage;whiteSpace=wrap;html=1;fixedSize=1;fontSize=12;size=20;" vertex="1" parent="1">
          <mxGeometry x="1020" y="710" width="100" height="80" as="geometry" />
        </mxCell>
        <mxCell id="tZlK84Gi0rUNLwhuvPa0-102" value="" style="edgeStyle=orthogonalEdgeStyle;rounded=0;orthogonalLoop=1;jettySize=auto;html=1;fontSize=12;" edge="1" parent="1" source="tZlK84Gi0rUNLwhuvPa0-92" target="tZlK84Gi0rUNLwhuvPa0-93">
          <mxGeometry relative="1" as="geometry" />
        </mxCell>
        <mxCell id="tZlK84Gi0rUNLwhuvPa0-92" value="calculate each pop hp and set the each pop hp&amp;nbsp;" style="whiteSpace=wrap;html=1;" vertex="1" parent="1">
          <mxGeometry x="1010" y="820" width="120" height="60" as="geometry" />
        </mxCell>
        <mxCell id="tZlK84Gi0rUNLwhuvPa0-103" value="" style="edgeStyle=orthogonalEdgeStyle;rounded=0;orthogonalLoop=1;jettySize=auto;html=1;fontSize=12;" edge="1" parent="1" source="tZlK84Gi0rUNLwhuvPa0-93" target="tZlK84Gi0rUNLwhuvPa0-94">
          <mxGeometry relative="1" as="geometry" />
        </mxCell>
        <mxCell id="tZlK84Gi0rUNLwhuvPa0-93" value="construct the partial converted object" style="whiteSpace=wrap;html=1;" vertex="1" parent="1">
          <mxGeometry x="1010" y="910" width="120" height="60" as="geometry" />
        </mxCell>
        <mxCell id="tZlK84Gi0rUNLwhuvPa0-104" value="" style="edgeStyle=orthogonalEdgeStyle;rounded=0;orthogonalLoop=1;jettySize=auto;html=1;fontSize=12;" edge="1" parent="1" source="tZlK84Gi0rUNLwhuvPa0-94" target="tZlK84Gi0rUNLwhuvPa0-95">
          <mxGeometry relative="1" as="geometry" />
        </mxCell>
        <mxCell id="tZlK84Gi0rUNLwhuvPa0-94" value="IF attack range not undefind" style="rhombus;whiteSpace=wrap;html=1;" vertex="1" parent="1">
          <mxGeometry x="1030" y="1000" width="80" height="80" as="geometry" />
        </mxCell>
        <mxCell id="tZlK84Gi0rUNLwhuvPa0-105" value="" style="edgeStyle=orthogonalEdgeStyle;rounded=0;orthogonalLoop=1;jettySize=auto;html=1;fontSize=12;" edge="1" parent="1" source="tZlK84Gi0rUNLwhuvPa0-95" target="tZlK84Gi0rUNLwhuvPa0-96">
          <mxGeometry relative="1" as="geometry" />
        </mxCell>
        <mxCell id="tZlK84Gi0rUNLwhuvPa0-95" value="set the sight range as attack range" style="whiteSpace=wrap;html=1;" vertex="1" parent="1">
          <mxGeometry x="1140" y="1010" width="120" height="60" as="geometry" />
        </mxCell>
        <mxCell id="tZlK84Gi0rUNLwhuvPa0-109" value="" style="edgeStyle=orthogonalEdgeStyle;rounded=0;orthogonalLoop=1;jettySize=auto;html=1;fontSize=12;" edge="1" parent="1" source="tZlK84Gi0rUNLwhuvPa0-96" target="tZlK84Gi0rUNLwhuvPa0-108">
          <mxGeometry relative="1" as="geometry">
            <Array as="points">
              <mxPoint x="1310" y="1130" />
              <mxPoint x="1310" y="970" />
              <mxPoint x="1250" y="970" />
            </Array>
          </mxGeometry>
        </mxCell>
        <mxCell id="tZlK84Gi0rUNLwhuvPa0-96" value="return property" style="whiteSpace=wrap;html=1;" vertex="1" parent="1">
          <mxGeometry x="1140" y="1100" width="120" height="60" as="geometry" />
        </mxCell>
        <mxCell id="tZlK84Gi0rUNLwhuvPa0-108" value="end" style="ellipse;whiteSpace=wrap;html=1;" vertex="1" parent="1">
          <mxGeometry x="1180" y="850" width="120" height="60" as="geometry" />
        </mxCell>
      </root>
    </mxGraphModel>
  </diagram>
</mxfile>
